<?xml version="1.0" encoding="utf-8"?>
<!-- Generator: Adobe Illustrator 27.6.1, SVG Export Plug-In . SVG Version: 6.00 Build 0)  -->
<svg version="1.1" id="Layer_1" xmlns="http://www.w3.org/2000/svg" xmlns:xlink="http://www.w3.org/1999/xlink" x="0px" y="0px"
	 viewBox="0 0 48 48" style="enable-background:new 0 0 48 48;" xml:space="preserve">
<style type="text/css">
	.st0{fill:none;}
	.st1{fill:none;stroke:#000000;stroke-width:1.5;stroke-linecap:round;stroke-linejoin:round;stroke-miterlimit:8;}
</style>
<path class="st0" d="M0,0h48v48H0V0z"/>
<path class="st1" d="M8,18c0-2.2,1.8-4,4-4h22c2.2,0,4,1.8,4,4v1c0,0.6,0.4,1,1,1s1,0.4,1,1v6c0,0.6-0.4,1-1,1s-1,0.4-1,1v1
	c0,2.2-1.8,4-4,4h-9"/>
<path class="st1" d="M6,30h12v4c0,2.2-1.8,4-4,4h-4c-2.2,0-4-1.8-4-4V30z"/>
<path class="st1" d="M12,44v-6"/>
<path class="st1" d="M8,30v-5"/>
<path class="st1" d="M16,30v-5"/>
</svg>
