<?xml version="1.0" encoding="utf-8"?>
<!-- Generator: Adobe Illustrator 26.0.3, SVG Export Plug-In . SVG Version: 6.00 Build 0)  -->
<svg version="1.1" id="Layer_1" xmlns="http://www.w3.org/2000/svg" xmlns:xlink="http://www.w3.org/1999/xlink" x="0px" y="0px"
	 viewBox="0 0 32 32" style="enable-background:new 0 0 32 32;" xml:space="preserve">
<style type="text/css">
	.st0{fill:none;}
	.st1{fill:none;stroke:#000000;stroke-linecap:round;stroke-linejoin:round;stroke-miterlimit:8;}
</style>
<path class="st0" d="M0,0h32v32H0V0z"/>
<g>
	<path class="st1" d="M11.5,15.2V14c0-1.3,1-2.3,2.3-2.3H16v5.7h-2.3C12.5,17.5,11.5,16.5,11.5,15.2z"/>
	<g>
		<line class="st1" x1="18.7" y1="13.1" x2="16.1" y2="13.1"/>
		<line class="st1" x1="18.7" y1="16.2" x2="16.1" y2="16.2"/>
	</g>
	<circle class="st1" cx="9.2" cy="22" r="2.7"/>
	<circle class="st1" cx="22.5" cy="22" r="2.7"/>
	<g>
		<path class="st1" d="M6.3,22.1H5.7c-0.5,0-0.9-0.3-1.2-0.7c-0.3-0.5-0.5-0.8-0.5-1.5v-5.1v-0.2h0.1h0.3h7"/>
		<path class="st1" d="M4.1,10.8c0,0,1.7,0.5,2.8-0.3c1.3-0.9,2.7-3.1,6.9-3.1s7.3,1.4,10,6.5c0,0,4.2,0.2,4.2,4.8v1.8
			c0,0.5-0.1,0.9-0.3,1.2c-0.2,0.3-0.7,0.5-0.9,0.5h-1.3h-0.2"/>
		<line class="st1" x1="11.9" y1="22.1" x2="19.9" y2="22.1"/>
	</g>
</g>
</svg>
