<svg xmlns="http://www.w3.org/2000/svg" viewBox="34 53.87 148.88 100.2"><defs><style>.cls-1{fill:#001e2e;} .cls-2{fill:#ffd200;} .cls-3{fill:#429439;} .cls-4{fill:#333091;} .cls-5{fill:#00aeef;} .cls-6{fill:#ec008c;}</style></defs><title>NRG logo</title><g id="_NRG_WORDMARK" data-name=" NRG WORDMARK"><g id="NRG-_R_-k" data-name="NRG-(R)-k"><g id="nrg"><path class="cls-1" d="M103.6,151.49l2.61-8.1a26.46,26.46,0,0,0,10.39,2.28c5.86,0,11.5-2.5,11.5-9.92v-1.1a20.35,20.35,0,0,1-10,2.31c-11.94,0-18.48-7.74-18.48-18.71,0-10.62,7.76-19.64,20.43-19.64a31.13,31.13,0,0,1,17.3,5.08h0V133c0,4.88-.54,7.6-1.63,10.23-2.84,6.88-9.64,10.84-19.56,10.84A32.33,32.33,0,0,1,103.6,151.49Zm24.5-42.93a13.46,13.46,0,0,0-7.74-2.26c-7.25,0-11.43,5.41-11.43,12,0,6.29,3.47,11,10.53,11,3.84,0,6.88-1,8.64-2.47Z"/><path class="cls-1" d="M34,99.47h8.8l.23,3.85a15.89,15.89,0,0,1,11.45-4.63c8.43,0,14,4.94,14,14.45V136H59.36V114.25c0-5.27-2.75-7.6-6.95-7.6-4,0-8,2.68-9.18,6V136H34Z"/><path class="cls-1" d="M76.09,99.47H84.8l.23,4.69a13.56,13.56,0,0,1,11.17-5.3,13.88,13.88,0,0,1,5.26,1.06l-2.91,8.27a15.37,15.37,0,0,0-4.85-.78,9.05,9.05,0,0,0-8.42,5.74V136H76.09Z"/></g></g></g><g id="NRG_POSITIVES" data-name="NRG POSITIVES"><g id="Positives_CMYK" data-name="Positives CMYK"><rect class="cls-2" x="165.91" y="71.7" width="6.21" height="9.9"/><rect class="cls-2" x="165.91" y="89.52" width="6.21" height="9.91"/><rect class="cls-3" x="155.14" y="82.45" width="9.9" height="6.22"/><rect class="cls-2" x="172.96" y="82.45" width="9.92" height="6.22"/><rect class="cls-4" x="148.09" y="71.7" width="6.21" height="9.9"/><rect class="cls-5" x="148.09" y="89.52" width="6.21" height="9.91"/><rect class="cls-5" x="137.31" y="82.45" width="9.91" height="6.22"/><rect class="cls-6" x="148.09" y="53.87" width="6.21" height="9.9"/><rect class="cls-6" x="137.31" y="64.63" width="9.91" height="6.21"/><rect class="cls-6" x="155.14" y="64.63" width="9.92" height="6.21"/></g></g></svg>
