<?xml version="1.0" encoding="utf-8"?>
<!-- Generator: Adobe Illustrator 27.7.0, SVG Export Plug-In . SVG Version: 6.00 Build 0)  -->
<svg version="1.1" id="Layer_1" xmlns="http://www.w3.org/2000/svg" xmlns:xlink="http://www.w3.org/1999/xlink" x="0px" y="0px"
	 viewBox="0 0 48 48" style="enable-background:new 0 0 48 48;" xml:space="preserve">
<style type="text/css">
	.st0{fill:none;}
	.st1{fill:none;stroke:#000000;stroke-width:1.5;stroke-linecap:round;stroke-linejoin:round;stroke-miterlimit:8;}
</style>
<path class="st0" d="M0,0h48v48H0V0z"/>
<path class="st1" d="M18,42V30c0-2.2,1.8-4,4-4h3.2"/>
<path class="st1" d="M40,22L24,6L6,24h4v14c0,2.2,1.8,4,4,4h8.3"/>
<path class="st1" d="M32,36c0,2.2,1.8,4,4,4s4-1.8,4-4s-1.8-4-4-4S32,33.8,32,36"/>
<path class="st1" d="M36,29v3"/>
<path class="st1" d="M36,40v3"/>
<path class="st1" d="M42.1,32.5L39.5,34"/>
<path class="st1" d="M32.5,38l-2.6,1.5"/>
<path class="st1" d="M29.9,32.5l2.6,1.5"/>
<path class="st1" d="M39.5,38l2.6,1.5"/>
</svg>
