<?xml version="1.0" encoding="utf-8"?>
<!-- Generator: Adobe Illustrator 26.0.3, SVG Export Plug-In . SVG Version: 6.00 Build 0)  -->
<svg version="1.1" id="Layer_1" xmlns="http://www.w3.org/2000/svg" xmlns:xlink="http://www.w3.org/1999/xlink" x="0px" y="0px"
	 viewBox="0 0 32 32" style="enable-background:new 0 0 32 32;" xml:space="preserve">
<style type="text/css">
	.st0{fill:none;}
	.st1{fill:none;stroke:#000000;stroke-linecap:round;stroke-linejoin:round;stroke-miterlimit:5.3333;}
</style>
<path class="st0" d="M0,0h32v32H0V0z"/>
<path class="st1" d="M21.3,6.7l4,4L22.7,12l5.3,5.3l-4,1.3l5.3,5.3h-12"/>
<line class="st1" x1="20" y1="28" x2="20" y2="24"/>
<path class="st1" d="M10.7,17.3L8,14.7"/>
<path class="st1" d="M10.7,16l2.7-2.7"/>
<path class="st1" d="M10.7,28V10.7"/>
<path class="st1" d="M7.8,21.3c-2.2-0.1-3.9-2-3.8-4.2c0-0.2,0-0.5,0.1-0.7c-1.7-1.4-1.9-3.9-0.5-5.6c0.3-0.3,0.6-0.6,0.9-0.8
	C3.4,8,4.1,5.6,6,4.5C7.5,3.7,9.4,3.9,10.7,5c1.6-1.5,4.2-1.3,5.6,0.3c1.1,1.3,1.3,3.1,0.5,4.6c1.9,1.2,2.4,3.7,1.2,5.5
	c-0.2,0.3-0.5,0.7-0.8,0.9c0.5,2.1-0.8,4.3-3,4.8c-0.3,0.1-0.6,0.1-0.9,0.1H8L7.8,21.3z"/>
</svg>
