<?xml version="1.0" encoding="utf-8"?>
<!-- Generator: Adobe Illustrator 27.6.1, SVG Export Plug-In . SVG Version: 6.00 Build 0)  -->
<svg version="1.1" id="Layer_1" xmlns="http://www.w3.org/2000/svg" xmlns:xlink="http://www.w3.org/1999/xlink" x="0px" y="0px"
	 viewBox="0 0 48 48" style="enable-background:new 0 0 48 48;" xml:space="preserve">
<style type="text/css">
	.st0{fill:none;}
	.st1{fill:none;stroke:#000000;stroke-width:1.5;stroke-linecap:round;stroke-linejoin:round;stroke-miterlimit:8;}
</style>
<path class="st0" d="M0,0h48v48H0V0z"/>
<path class="st1" d="M16,4c0,4.4,3.6,8,8,8s8-3.6,8-8"/>
<path class="st1" d="M8,6h2"/>
<path class="st1" d="M38,6h2"/>
<path class="st1" d="M24,18v2"/>
<path class="st1" d="M34.4,14.4l1.4,1.4"/>
<path class="st1" d="M13.6,14.4l-1.4,1.4"/>
<path class="st1" d="M8.6,42h30.9c1.1,0,2-0.9,2-2c0-0.2,0-0.3-0.1-0.5l-3-12c-0.2-0.9-1-1.5-1.9-1.5H11.6c-0.9,0-1.7,0.6-1.9,1.5
	l-3,12c-0.3,1.1,0.4,2.2,1.5,2.4C8.2,42,8.4,42,8.6,42z"/>
<path class="st1" d="M8,34h32"/>
<path class="st1" d="M20,26l-2,16"/>
<path class="st1" d="M28,26l2,16"/>
</svg>
