<?xml version="1.0" encoding="utf-8"?>
<!-- Generator: Adobe Illustrator 26.0.3, SVG Export Plug-In . SVG Version: 6.00 Build 0)  -->
<svg version="1.1" id="Layer_1" xmlns="http://www.w3.org/2000/svg" xmlns:xlink="http://www.w3.org/1999/xlink" x="0px" y="0px"
	 viewBox="0 0 32 32" style="enable-background:new 0 0 32 32;" xml:space="preserve">
<style type="text/css">
	.st0{fill:none;}
	.st1{fill:none;stroke:#000000;stroke-linecap:round;stroke-linejoin:round;stroke-miterlimit:5.3333;}
</style>
<path class="st0" d="M0,0h32v32H0V0z"/>
<path class="st1" d="M4,16h1.3 M16,4v1.3 M26.7,16H28 M7.5,7.5l0.9,0.9 M24.5,7.5l-0.9,0.9"/>
<path class="st1" d="M12,21.3c-2.9-2.2-3.5-6.4-1.3-9.3s6.4-3.5,9.3-1.3s3.5,6.4,1.3,9.3c-0.4,0.5-0.8,1-1.3,1.3
	c-1.1,1-1.6,2.5-1.3,4c0,1.5-1.2,2.7-2.7,2.7s-2.7-1.2-2.7-2.7C13.6,23.9,13.1,22.4,12,21.3"/>
<line class="st1" x1="12.9" y1="22.7" x2="19.1" y2="22.7"/>
</svg>
